<?xml version="1.0" encoding="UTF-8"?>
<svg width="16px" height="16px" viewBox="0 0 16 16" version="1.1" xmlns="http://www.w3.org/2000/svg" xmlns:xlink="http://www.w3.org/1999/xlink">
    <!-- Generator: Sketch 53.2 (72643) - https://sketchapp.com -->
    <title>Shape</title>
    <desc>Created with Sketch.</desc>
    <g id="4.-Symbols" stroke="none" stroke-width="1" fill="none" fill-rule="evenodd">
        <g id="⚙️/Close/White" transform="translate(-4.000000, -4.000000)" fill="#FFFFFF" fill-rule="nonzero">
            <path d="M12.0037193,4 C9.86750545,4 7.85772318,4.83145579 6.34598539,6.34314558 C4.83498377,7.85414719 4.00219965,9.86402548 4.00219965,12.0019998 C4.00094932,14.1399741 4.83240713,16.1499164 6.34470507,17.660854 C7.85570668,19.1718556 9.86558497,20.0039996 12.002439,20.0039996 C14.1410535,20.0039996 16.1516359,19.1712955 17.6625735,17.6597337 C20.7827133,14.5402341 20.781433,9.46328533 17.6625735,6.34314558 C16.1515719,4.83214396 14.1416936,4 12.0037193,4 L12.0037193,4 Z M12.0037193,5.35909165 C13.7779227,5.35909165 15.4458595,6.04988829 16.7016934,7.30389768 C19.2911405,9.89462513 19.2911405,14.1087983 16.7016934,16.6987255 C15.4457475,17.9540473 13.7777627,18.6448119 12.002439,18.6448119 C10.2282356,18.6448119 8.55965861,17.9546394 7.3055852,16.7000059 C6.05215195,15.4453243 5.36141933,13.7767153 5.36141933,12.0020318 C5.36141933,10.2273483 6.05221597,8.55861124 7.30686552,7.30405772 C8.56154708,6.05062447 10.2295159,5.35925169 12.0037193,5.35925169 L12.0037193,5.35909165 Z M10.1126867,9.43130934 C9.93889929,9.43130934 9.76509586,9.4975755 9.63256674,9.63073518 C9.36686834,9.89643358 9.36686834,10.3259169 9.63256674,10.5915993 L11.0441675,12.0032001 L9.63256674,13.4148009 C9.36686834,13.6804993 9.36686834,14.1099826 9.63256674,14.375665 C9.76509906,14.5081973 9.93889929,14.5750908 10.1126867,14.5750908 C10.2864742,14.5750908 10.4602776,14.5081989 10.5928067,14.375665 L12.0044075,12.9640642 L13.4160083,14.375665 C13.5485406,14.5081973 13.7223408,14.5750908 13.8967524,14.5750908 C14.0705398,14.5750908 14.2449674,14.5081989 14.3768724,14.375665 C14.6425708,14.1099666 14.6425708,13.6804833 14.3768724,13.4148009 L12.9652716,12.0032001 L14.3768724,10.5915993 C14.6425708,10.3259009 14.6425708,9.89641758 14.3768724,9.63073518 C14.111174,9.36503678 13.6816907,9.36503678 13.4160083,9.63073518 L12.0044075,11.042336 L10.5928067,9.63073518 C10.4596486,9.4975771 10.2864742,9.43130934 10.1126867,9.43130934 L10.1126867,9.43130934 Z" id="Shape"></path>
        </g>
    </g>
</svg>