<?xml version="1.0" encoding="UTF-8"?>
<svg width="15px" height="18px" viewBox="0 0 15 18" version="1.1" xmlns="http://www.w3.org/2000/svg" xmlns:xlink="http://www.w3.org/1999/xlink">
    <!-- Generator: Sketch 53.2 (72643) - https://sketchapp.com -->
    <title>Shape</title>
    <desc>Created with Sketch.</desc>
    <g id="4.-Symbols" stroke="none" stroke-width="1" fill="none" fill-rule="evenodd">
        <g id="⚙️/Trash/White" transform="translate(-5.000000, -3.000000)" fill="#FFFFFF" fill-rule="nonzero">
            <path d="M5.65520305,8.08501362 L5.65520305,8.2523586 L5.65520305,9.91032832 L5.65520305,19.0270108 C5.64254665,19.5459172 5.84011791,20.0479576 6.20294561,20.4192093 C6.56505329,20.790461 7.06216161,21 7.58106803,21 L16.6169301,21 C16.7786501,20.9992969 16.9389696,20.9796095 17.0957684,20.9409381 C17.9810125,20.7313991 18.5969394,19.9291354 18.5702272,19.0199692 L18.5702272,8.28453915 L18.5702272,8.07570217 L5.65516705,8.07570217 L5.65520305,8.08501362 Z M8.87343805,19.0742448 C8.69273521,19.0742448 8.5197724,18.9997137 8.39602183,18.8675319 C8.27227125,18.73535 8.20968496,18.5581464 8.22164601,18.3774436 L8.22164601,14.5383857 L8.22164601,10.6577476 L8.22164601,10.6570443 C8.21672407,10.3293888 8.4557911,10.0488395 8.77993661,10.0010313 C9.10408213,9.95322306 9.41344957,10.152907 9.50344999,10.4679175 C9.52384048,10.5466678 9.53298092,10.626824 9.53016931,10.7076786 L9.53016931,18.3886744 L9.53016931,18.3879711 C9.5407161,18.5679719 9.47532486,18.7437608 9.35087228,18.8738294 C9.2264197,19.003898 9.05345689,19.0763303 8.87345605,19.0742243 L8.87343805,19.0742448 Z M12.1134531,19.0742448 C11.9327503,19.0742448 11.7597875,18.9997137 11.6360369,18.8675319 C11.5122863,18.73535 11.4497001,18.5581464 11.4616611,18.3774436 L11.4616611,14.5383857 L11.4616611,10.6577476 L11.4616611,10.6570443 C11.4560361,10.3293888 11.6944022,10.0481375 12.0192497,9.99962728 C12.3433952,9.95111165 12.6534647,10.1507992 12.7434651,10.4665135 C12.7638556,10.54456 12.772996,10.62542 12.7701844,10.7055726 L12.7701844,18.3865684 C12.7807312,18.5665692 12.7160438,18.74306 12.5915894,18.8731286 C12.467135,19.00391 12.293472,19.0763316 12.1134711,19.0742256 L12.1134531,19.0742448 Z M15.3534682,19.0742448 C15.1727654,19.0742448 14.9998026,18.9990099 14.876754,18.8661279 C14.7530034,18.7339388 14.6904172,18.5560404 14.703784,18.3760396 L14.703784,14.5152016 L14.703784,10.6543636 L14.703784,10.6536603 C14.703784,10.3281108 14.9435451,10.0517735 15.2662866,10.0060713 C15.5890281,9.9610711 15.8955876,10.1607604 15.985588,10.4736595 C16.0052765,10.5517061 16.0144169,10.632566 16.0123073,10.7134206 L16.0123073,18.3944164 L16.0123073,18.3937131 C16.0207449,18.57582 15.9532454,18.7523108 15.8252684,18.8816774 C15.6972986,19.011053 15.520815,19.0806683 15.3394102,19.0743323 L15.3534682,19.0742448 Z M17.025514,4.43999663 L14.9141042,4.43999663 L14.9141042,4.42382464 C14.9155104,4.04693888 14.7671497,3.68483119 14.5013623,3.41765595 C14.235573,3.1511647 13.8748694,3.000702 13.4980016,3 L10.7290487,3 C9.94575705,3 9.31084009,3.63491696 9.31084009,4.41820861 L9.31084009,4.4343806 L7.20141026,4.4343806 C5.98570259,4.4343806 5,5.4201732 5,6.63579086 C5,6.79258779 5.01687508,6.94868632 5.05062524,7.10195704 L19.1765511,7.10195704 C19.2103012,6.94867552 19.2271763,6.79257159 19.2271763,6.63579086 C19.2243638,5.42218921 18.2392777,4.43996063 17.025766,4.43996063 L17.025514,4.43999663 Z" id="Shape"></path>
        </g>
    </g>
</svg>