<?xml version="1.0" encoding="UTF-8"?>
<svg width="13px" height="13px" viewBox="0 0 13 13" version="1.1" xmlns="http://www.w3.org/2000/svg" xmlns:xlink="http://www.w3.org/1999/xlink">
    <!-- Generator: Sketch 53.2 (72643) - https://sketchapp.com -->
    <title>Shape</title>
    <desc>Created with Sketch.</desc>
    <g id="1.-Pages" stroke="none" stroke-width="1" fill="none" fill-rule="evenodd">
        <g id="Winkelmandje-(ophalen)" transform="translate(-1099.000000, -710.000000)" fill="#FFFFFF" fill-rule="nonzero">
            <path d="M1105.62679,710.363636 C1105.0166,710.363636 1104.52153,710.858702 1104.52153,711.4689 L1104.52153,715.521531 L1100.4689,715.521531 C1099.8587,715.521531 1099.36364,716.016597 1099.36364,716.626794 C1099.36364,717.236992 1099.8587,717.732057 1100.4689,717.732057 L1104.52153,717.732057 L1104.52153,721.784689 C1104.52153,722.394886 1105.0166,722.889952 1105.62679,722.889952 C1106.23699,722.889952 1106.73206,722.394886 1106.73206,721.784689 L1106.73206,717.732057 L1110.78469,717.732057 C1111.39489,717.732057 1111.88995,717.236992 1111.88995,716.626794 C1111.88995,716.016597 1111.39489,715.521531 1110.78469,715.521531 L1106.73206,715.521531 L1106.73206,711.4689 C1106.73206,710.858702 1106.23699,710.363636 1105.62679,710.363636 Z" id="Shape"></path>
        </g>
    </g>
</svg>